<svg width="81" height="81" viewBox="0 0 81 81" fill="none" xmlns="http://www.w3.org/2000/svg">
<path fill-rule="evenodd" clip-rule="evenodd" d="M39.0234 20H15.5C6.93959 20 0 26.9396 0 35.5C0 44.0604 6.93959 51 15.5 51H71C75.4183 51 79 54.5817 79 59C79 63.4183 75.4183 67 71 67H34.5V69H71C76.5229 69 81 64.5228 81 59C81 53.4772 76.5229 49 71 49H15.5C8.04416 49 2 42.9558 2 35.5C2 28.0442 8.04416 22 15.5 22H39.0234C39.5453 33.1336 48.7372 42 60 42C71.598 42 81 32.598 81 21C81 9.40202 71.598 0 60 0C48.7372 0 39.5453 8.86637 39.0234 20ZM41.0259 20C41.5459 9.97144 49.842 2 60 2C70.4934 2 79 10.5066 79 21C79 31.4934 70.4934 40 60 40C49.842 40 41.5459 32.0286 41.0259 22H46.0352C46.5479 29.2653 52.6042 35 60 35C67.732 35 74 28.732 74 21C74 13.268 67.732 7 60 7C52.6042 7 46.5479 12.7347 46.0352 20H41.0259ZM48.0411 22C48.5492 28.1595 53.7093 33 60 33C66.6274 33 72 27.6274 72 21C72 14.3726 66.6274 9 60 9C53.7093 9 48.5492 13.8405 48.0411 20H57.5858L53.2929 15.7071L54.7071 14.2929L61.4142 21L54.7071 27.7071L53.2929 26.2929L57.5858 22H48.0411ZM65 21C65 18.2386 62.7614 16 60 16V14C63.866 14 67 17.134 67 21C67 24.866 63.866 28 60 28V26C62.7614 26 65 23.7614 65 21ZM0.957491 55.5367L30.0386 68L0.957491 80.4633L6.89241 68L0.957491 55.5367ZM8.6314 69L5.04251 76.5367L24.9614 68L5.04251 59.4633L8.6314 67H17V69H8.6314Z" fill="url(#paint0_linear)"/>
<defs>
<linearGradient id="paint0_linear" x1="40.5" y1="0" x2="40.5" y2="80.4633" gradientUnits="userSpaceOnUse">
<stop stop-color="#6BB86C"/>
<stop offset="1" stop-color="#0C988D"/>
</linearGradient>
</defs>
</svg>
