<svg width="130" height="28" viewBox="0 0 130 28" fill="none" xmlns="http://www.w3.org/2000/svg">
<path d="M129.544 20.0916H0V28.0001H129.544V20.0916Z" fill="#FFF243"/>
<path fill-rule="evenodd" clip-rule="evenodd" d="M58.6784 23.3601C59.7089 23.3601 60.6197 23.027 61.4107 22.3608V23.282H63.9245V17.3801H59.3654V19.566H61.2858C60.6093 20.2946 59.8286 20.659 58.9438 20.659C58.5587 20.659 58.21 20.5913 57.8977 20.456C57.5854 20.3103 57.3148 20.1125 57.0858 19.8626C56.8672 19.6024 56.6955 19.2954 56.5706 18.9415C56.4457 18.5876 56.3832 18.192 56.3832 17.7548C56.3832 17.3281 56.4457 16.9378 56.5706 16.5838C56.6955 16.2196 56.8672 15.9072 57.0858 15.647C57.3044 15.3868 57.5646 15.1838 57.8665 15.0381C58.1684 14.8924 58.5015 14.8195 58.8657 14.8195C59.355 14.8195 59.8182 14.9549 60.2553 15.2255C60.6925 15.4857 61.0204 15.8344 61.239 16.2716L63.503 14.5384C63.3052 14.1637 63.0501 13.8307 62.7379 13.5392C62.4256 13.2374 62.0717 12.9824 61.6762 12.7741C61.291 12.5556 60.8695 12.3943 60.4115 12.2902C59.9535 12.1757 59.4747 12.1184 58.975 12.1184C58.1736 12.1184 57.4241 12.2642 56.7267 12.5556C56.0397 12.8366 55.4412 13.227 54.9312 13.7266C54.4211 14.2158 54.0204 14.7987 53.729 15.4753C53.4375 16.1415 53.2917 16.8649 53.2917 17.6455C53.2917 18.5511 53.4375 19.3578 53.729 20.0657C54.0204 20.7734 54.4107 21.372 54.8999 21.8612C55.3892 22.3504 55.9617 22.7251 56.6174 22.9854C57.2732 23.2352 57.9602 23.3601 58.6784 23.3601ZM18.7877 22.8917C19.4747 23.2144 20.2397 23.3757 21.0828 23.3757C21.9052 23.3757 22.6598 23.2196 23.3468 22.9072C24.0442 22.595 24.6427 22.1839 25.1424 21.6739C25.642 21.1534 26.0323 20.56 26.3134 19.8939C26.5944 19.2173 26.7349 18.5147 26.7349 17.7861C26.7349 17.0782 26.5996 16.386 26.329 15.7095C26.0687 15.0329 25.694 14.4292 25.2048 13.8983C24.7156 13.3675 24.1275 12.9407 23.4405 12.618C22.7535 12.2953 21.9884 12.134 21.1453 12.134C20.323 12.134 19.5632 12.2902 18.8657 12.6024C18.1788 12.9043 17.5803 13.3154 17.0702 13.8359C16.5706 14.3459 16.1802 14.9392 15.8992 15.6158C15.6182 16.2924 15.4776 16.995 15.4776 17.7236C15.4776 18.4418 15.613 19.1392 15.8836 19.8158C16.1542 20.4924 16.5341 21.0961 17.0234 21.627C17.5126 22.1474 18.1007 22.569 18.7877 22.8917ZM18.7252 18.8478C18.6211 18.4939 18.5691 18.1296 18.5691 17.7548C18.5691 17.3906 18.6159 17.0366 18.7096 16.6932C18.8137 16.3392 18.9698 16.027 19.178 15.7563C19.3862 15.4753 19.6464 15.2515 19.9587 15.085C20.2814 14.9184 20.6613 14.8351 21.0985 14.8351C21.5252 14.8351 21.8948 14.9184 22.207 15.085C22.5297 15.2411 22.7951 15.4545 23.0033 15.7251C23.2219 15.9853 23.3832 16.2924 23.4873 16.6463C23.5914 16.9898 23.6435 17.3489 23.6435 17.7236C23.6435 18.088 23.5914 18.447 23.4873 18.8009C23.3937 19.1549 23.2427 19.4723 23.0345 19.7533C22.8368 20.024 22.5765 20.2478 22.2539 20.4247C21.9312 20.5913 21.5513 20.6746 21.1141 20.6746C20.6769 20.6746 20.297 20.5913 19.9743 20.4247C19.662 20.2582 19.4018 20.0396 19.1936 19.769C18.9854 19.4984 18.8293 19.1913 18.7252 18.8478ZM4.91016 12.1965V23.282H9.17262C10.0157 23.282 10.7808 23.1519 11.4678 22.8917C12.1548 22.621 12.7429 22.2463 13.2321 21.7675C13.7213 21.2783 14.0961 20.6954 14.3563 20.0188C14.6269 19.3318 14.7622 18.5668 14.7622 17.7236C14.7622 16.9638 14.6425 16.2507 14.4031 15.5846C14.1637 14.908 13.8098 14.3199 13.3414 13.8202C12.873 13.3206 12.2901 12.9251 11.5927 12.6337C10.8953 12.3422 10.0886 12.1965 9.17262 12.1965H4.91016ZM11.499 16.5526C11.6135 16.9065 11.6708 17.2968 11.6708 17.7236C11.6708 18.14 11.6135 18.5251 11.499 18.879C11.3949 19.2329 11.2336 19.54 11.015 19.8002C10.8068 20.0604 10.5466 20.2634 10.2343 20.4091C9.92206 20.5548 9.56816 20.6277 9.17262 20.6277H7.95476V14.8508H9.17262C9.55776 14.8508 9.90646 14.9236 10.2187 15.0694C10.531 15.2047 10.7912 15.3972 10.9994 15.647C11.218 15.8969 11.3845 16.1987 11.499 16.5526ZM28.0253 23.282V12.1965H31.07V20.6277H36.0975V23.282H28.0253ZM37.1586 12.1965V23.282H40.2032V12.1965H37.1586ZM45.1586 17.8329V23.282H42.114V12.1965H44.4873L48.9371 17.8329V12.1965H51.9817V23.282H49.5616L45.1586 17.8329ZM73.3278 20.6277V23.282H65.4274V12.1965H73.1873V14.8508H68.472V16.4121H72.5003V18.879H68.472V20.6277H73.3278ZM74.7436 12.1965V23.282H77.7882V19.8783H78.928L80.8797 23.282H84.3147L81.9726 19.2069C82.4723 18.853 82.8626 18.4002 83.1437 17.8486C83.4247 17.2865 83.5652 16.6827 83.5652 16.0373C83.5652 15.569 83.4715 15.1058 83.2842 14.6478C83.0968 14.1794 82.8366 13.7682 82.5035 13.4144C82.1808 13.05 81.7905 12.7586 81.3325 12.54C80.8745 12.311 80.3749 12.1965 79.8336 12.1965H74.7436ZM79.7087 17.224H77.7882V14.8508H79.6306C79.818 14.8508 80.0053 14.9549 80.1927 15.163C80.3801 15.3608 80.4737 15.6523 80.4737 16.0373C80.4737 16.4121 80.3905 16.7035 80.2239 16.9118C80.0678 17.1199 79.8961 17.224 79.7087 17.224ZM95.191 12.2745H95.9717L97.6267 16.3028L99.2817 12.2745H100.062L98.1107 16.9429L100.437 22.3452L104.684 12.1965H105.558L100.812 23.282H100.078L97.6423 17.5831L95.191 23.282H94.4572L89.7263 12.1965H90.5851L94.8475 22.3452L97.1427 16.9429L95.191 12.2745ZM114.614 22.5638V23.282H107.228V12.1965H114.473V12.9147H108.025V17.2708H113.661V17.9579H108.025V22.5638H114.614ZM124.72 21.5489C124.876 21.195 124.954 20.8151 124.954 20.4091C124.954 19.7533 124.767 19.1705 124.392 18.6604C124.028 18.14 123.528 17.7861 122.893 17.5987C123.393 17.3801 123.783 17.0366 124.065 16.5682C124.346 16.0998 124.486 15.5846 124.486 15.0225C124.486 14.679 124.424 14.3407 124.299 14.0076C124.184 13.6641 124.018 13.3622 123.799 13.102C123.58 12.8314 123.315 12.6128 123.003 12.4463C122.691 12.2797 122.342 12.1965 121.957 12.1965H116.789V23.282H121.972C122.378 23.282 122.763 23.2091 123.128 23.0634C123.492 22.9177 123.81 22.7147 124.08 22.4545C124.351 22.1943 124.564 21.8924 124.72 21.5489ZM124.002 19.4567C124.106 19.7273 124.158 20.0084 124.158 20.2998C124.158 20.5913 124.101 20.8723 123.986 21.1429C123.872 21.4136 123.716 21.6582 123.518 21.8768C123.331 22.085 123.102 22.2515 122.831 22.3764C122.571 22.5014 122.285 22.5638 121.972 22.5638H117.585V18.0203H122.082C122.373 18.0203 122.644 18.0827 122.893 18.2076C123.154 18.3325 123.378 18.5043 123.565 18.7229C123.752 18.9311 123.898 19.1757 124.002 19.4567ZM117.585 17.3489V12.9147H121.738C122.03 12.9147 122.295 12.9772 122.534 13.102C122.774 13.2166 122.977 13.3779 123.143 13.5861C123.32 13.7839 123.456 14.018 123.549 14.2887C123.653 14.5489 123.705 14.83 123.705 15.1318C123.705 15.4129 123.653 15.6886 123.549 15.9593C123.445 16.2299 123.299 16.4693 123.112 16.6775C122.935 16.8753 122.722 17.0366 122.472 17.1615C122.222 17.2865 121.946 17.3489 121.644 17.3489H117.585Z" fill="black"/>
<g opacity="0.5">
<path d="M5.50415 7.25461V0.657777H7.45841C8.28143 0.657777 8.87724 0.827782 9.24585 1.16779C9.61446 1.5078 9.79876 2.04006 9.79876 2.76457C9.79876 3.55898 9.61128 4.13414 9.23632 4.49004C8.86453 4.84276 8.25919 5.01912 7.42028 5.01912H6.38595V7.25461H5.50415ZM6.38595 4.21835H7.23439C7.69833 4.21835 8.03675 4.17386 8.24965 4.08489C8.46573 3.99273 8.62303 3.84656 8.72154 3.64637C8.82322 3.443 8.87406 3.15542 8.87406 2.78363C8.87406 2.32287 8.75967 1.98604 8.53088 1.77314C8.30208 1.56023 7.91123 1.45378 7.35832 1.45378H6.38595V4.21835Z" fill="black"/>
<path d="M10.6949 5.84849C10.6949 5.5053 10.7616 5.2209 10.8951 4.99529C11.0317 4.7665 11.2271 4.58696 11.4813 4.45667C11.7387 4.32321 12.1105 4.22788 12.5967 4.17068L13.8265 4.06105V3.81796C13.8265 3.43347 13.7184 3.17131 13.5023 3.03149C13.2894 2.89167 12.9939 2.82177 12.6158 2.82177C12.2789 2.82177 12.0184 2.88055 11.8341 2.99813C11.6529 3.1157 11.5226 3.24281 11.4432 3.37945L10.7711 2.96953C10.9237 2.69307 11.1556 2.48176 11.467 2.33558C11.7816 2.18623 12.1709 2.11156 12.6348 2.11156C13.353 2.11156 13.8678 2.24184 14.1792 2.50241C14.4906 2.76298 14.6463 3.21421 14.6463 3.8561V7.25461H13.8265V6.6302C13.5722 6.85263 13.3164 7.03694 13.059 7.18311C12.8017 7.32928 12.5109 7.40237 12.1868 7.40237C11.7101 7.40237 11.3415 7.25778 11.081 6.96862C10.8236 6.67627 10.6949 6.3029 10.6949 5.84849ZM11.5433 5.82942C11.5433 6.12813 11.618 6.34262 11.7673 6.4729C11.9167 6.60319 12.1407 6.66833 12.4394 6.66833C12.5633 6.66833 12.6857 6.64608 12.8064 6.6016C12.9272 6.55393 13.0463 6.49673 13.1639 6.43C13.2815 6.36009 13.3943 6.28224 13.5023 6.19644C13.6135 6.10747 13.7216 6.02167 13.8265 5.93905V4.71883L13.0257 4.79509C12.4823 4.84276 12.0994 4.94921 11.877 5.11445C11.6545 5.27651 11.5433 5.51484 11.5433 5.82942Z" fill="black"/>
<path d="M15.6616 6.48243L16.3384 6.07252C16.4877 6.28224 16.6466 6.43795 16.815 6.53963C16.9835 6.63814 17.2011 6.68739 17.4681 6.68739C17.8271 6.68739 18.1211 6.61749 18.3499 6.47767C18.5818 6.33785 18.6978 6.12495 18.6978 5.83896C18.6978 5.26698 18.3562 4.98099 17.673 4.98099H16.5815V4.30891H17.6253C17.9971 4.30891 18.2704 4.25648 18.4452 4.15162C18.62 4.04675 18.7073 3.87675 18.7073 3.6416C18.7073 3.09504 18.3038 2.82177 17.4967 2.82177C17.2234 2.82177 17.0041 2.87579 16.8389 2.98383C16.6736 3.09187 16.5291 3.24281 16.4051 3.43664L15.7331 3.02672C16.0826 2.41661 16.6673 2.11156 17.4871 2.11156C18.1576 2.11156 18.6613 2.24661 18.9981 2.51671C19.3381 2.78681 19.5081 3.15224 19.5081 3.613C19.5081 3.9117 19.4303 4.15638 19.2746 4.34704C19.1189 4.53453 18.9361 4.66163 18.7264 4.72836C18.9234 4.79827 19.1014 4.93173 19.2603 5.12875C19.4191 5.32259 19.4986 5.58792 19.4986 5.92475C19.4986 6.90983 18.8186 7.40237 17.4585 7.40237C16.9692 7.40237 16.5863 7.31657 16.3098 7.14498C16.0333 6.97021 15.8173 6.74936 15.6616 6.48243Z" fill="black"/>
<path d="M20.8141 9.13737V2.25455H21.634V2.75503C21.8215 2.57391 22.0471 2.42138 22.3108 2.29745C22.5746 2.17352 22.8574 2.11156 23.1593 2.11156C23.7535 2.11156 24.2158 2.33717 24.5463 2.7884C24.8768 3.23645 25.042 3.87993 25.042 4.71883C25.042 5.53867 24.8625 6.19168 24.5034 6.67786C24.1475 7.16086 23.6566 7.40237 23.0306 7.40237C22.5317 7.40237 22.0661 7.21647 21.634 6.84469V9.13737H20.8141ZM21.634 6.12971C22.0598 6.48879 22.4888 6.66833 22.9209 6.66833C23.2927 6.66833 23.5978 6.51262 23.8361 6.20121C24.0744 5.8898 24.1936 5.40203 24.1936 4.7379C24.1936 3.47319 23.7964 2.84083 23.002 2.84083C22.7414 2.84083 22.4919 2.90597 22.2536 3.03626C22.0153 3.16654 21.8087 3.31589 21.634 3.48431V6.12971Z" fill="black"/>
<path d="M26.1192 5.84849C26.1192 5.5053 26.186 5.2209 26.3194 4.99529C26.4561 4.7665 26.6515 4.58696 26.9057 4.45667C27.1631 4.32321 27.5349 4.22788 28.0211 4.17068L29.2508 4.06105V3.81796C29.2508 3.43347 29.1428 3.17131 28.9267 3.03149C28.7138 2.89167 28.4183 2.82177 28.0401 2.82177C27.7033 2.82177 27.4427 2.88055 27.2584 2.99813C27.0773 3.1157 26.947 3.24281 26.8676 3.37945L26.1955 2.96953C26.348 2.69307 26.58 2.48176 26.8914 2.33558C27.206 2.18623 27.5953 2.11156 28.0592 2.11156C28.7774 2.11156 29.2921 2.24184 29.6036 2.50241C29.915 2.76298 30.0707 3.21421 30.0707 3.8561V7.25461H29.2508V6.6302C28.9966 6.85263 28.7408 7.03694 28.4834 7.18311C28.226 7.32928 27.9353 7.40237 27.6112 7.40237C27.1345 7.40237 26.7659 7.25778 26.5053 6.96862C26.2479 6.67627 26.1192 6.3029 26.1192 5.84849ZM26.9677 5.82942C26.9677 6.12813 27.0424 6.34262 27.1917 6.4729C27.3411 6.60319 27.5651 6.66833 27.8638 6.66833C27.9877 6.66833 28.1101 6.64608 28.2308 6.6016C28.3516 6.55393 28.4707 6.49673 28.5883 6.43C28.7059 6.36009 28.8187 6.28224 28.9267 6.19644C29.0379 6.10747 29.146 6.02167 29.2508 5.93905V4.71883L28.4501 4.79509C27.9067 4.84276 27.5238 4.94921 27.3013 5.11445C27.0789 5.27651 26.9677 5.51484 26.9677 5.82942Z" fill="black"/>
<path d="M31.3195 4.14208C31.3195 3.5288 31.3513 3.00766 31.4148 2.57867C31.4816 2.14969 31.5832 1.78902 31.7199 1.49668C31.8565 1.20433 32.0313 0.970776 32.2442 0.796005C32.4603 0.618056 32.7193 0.478239 33.0211 0.376553C33.3262 0.274868 33.6773 0.198604 34.0745 0.147761C34.4717 0.0969188 34.9214 0.047665 35.4234 0V0.781705C34.8896 0.819837 34.4209 0.865913 34.0173 0.919934C33.6138 0.970776 33.2753 1.07564 33.0021 1.23452C32.7288 1.39023 32.5238 1.61743 32.3872 1.91613C32.2505 2.21483 32.1822 2.62475 32.1822 3.14589C32.3888 2.94252 32.6382 2.78204 32.9306 2.66447C33.2229 2.54372 33.5264 2.48334 33.841 2.48334C35.1279 2.48334 35.7714 3.2444 35.7714 4.7665C35.7714 5.58633 35.5871 6.2314 35.2185 6.70169C34.8531 7.16881 34.3351 7.40237 33.6646 7.40237C32.8766 7.40237 32.2887 7.12432 31.901 6.56823C31.5133 6.01214 31.3195 5.20342 31.3195 4.14208ZM32.1727 4.34704C32.1727 5.10651 32.303 5.69279 32.5636 6.10588C32.8273 6.51898 33.1975 6.72553 33.6741 6.72553C34.065 6.72553 34.3701 6.5444 34.5893 6.18214C34.8117 5.81671 34.923 5.35754 34.923 4.80463C34.923 4.25807 34.8213 3.84815 34.6179 3.57487C34.4177 3.30159 34.0968 3.16495 33.6551 3.16495C33.3977 3.16495 33.1355 3.23645 32.8686 3.37945C32.6017 3.52244 32.3729 3.70833 32.1822 3.93713L32.1727 4.14208V4.34704Z" fill="black"/>
<path d="M36.7104 4.7665C36.7104 3.87357 36.8995 3.20785 37.2776 2.76933C37.6589 2.33082 38.2055 2.11156 38.9173 2.11156C39.6354 2.11156 40.1804 2.33558 40.5522 2.78363C40.924 3.22851 41.1099 3.88946 41.1099 4.7665C41.1099 5.634 40.9224 6.29019 40.5474 6.73506C40.1756 7.17993 39.6323 7.40237 38.9173 7.40237C38.2023 7.40237 37.6558 7.18311 37.2776 6.74459C36.8995 6.3029 36.7104 5.64353 36.7104 4.7665ZM37.5588 4.7665C37.5588 5.41792 37.6653 5.90092 37.8782 6.21551C38.0943 6.5301 38.4406 6.68739 38.9173 6.68739C39.3717 6.68739 39.7085 6.53169 39.9278 6.22028C40.1502 5.90887 40.2614 5.42427 40.2614 4.7665C40.2614 4.08648 40.1486 3.59235 39.923 3.28412C39.7006 2.97588 39.3653 2.82177 38.9173 2.82177C38.4565 2.82177 38.1149 2.97747 37.8925 3.28888C37.6701 3.59712 37.5588 4.08965 37.5588 4.7665Z" fill="black"/>
<path d="M41.5961 2.91233V2.25455H45.5999V2.91233H43.9984V7.25461H43.1976V2.91233H41.5961Z" fill="black"/>
<path d="M46.4865 7.25461V2.25455H47.2873V4.38518H47.9879C48.1754 4.38518 48.3343 4.31845 48.4646 4.18498C48.5949 4.05152 48.7236 3.8275 48.8507 3.51291C48.981 3.19514 49.1065 2.77569 49.2272 2.25455H50.0614C49.9406 2.79793 49.8119 3.2444 49.6753 3.59394C49.5418 3.94348 49.4083 4.20246 49.2749 4.37088C49.1446 4.53929 48.9794 4.64733 48.7792 4.695C49.0175 4.76491 49.2113 4.87771 49.3607 5.03342C49.51 5.18913 49.6467 5.42268 49.7706 5.73409C49.8945 6.04233 50.0455 6.54916 50.2234 7.25461H49.3941C49.2828 6.86375 49.1827 6.5301 49.0938 6.25364C49.008 5.97719 48.9126 5.75316 48.8078 5.58157C48.7061 5.4068 48.5853 5.28128 48.4455 5.20501C48.3057 5.12557 48.1278 5.08585 47.9117 5.08585H47.2873V7.25461H46.4865Z" fill="black"/>
<path d="M50.8002 5.84849C50.8002 5.5053 50.8669 5.2209 51.0004 4.99529C51.137 4.7665 51.3324 4.58696 51.5866 4.45667C51.844 4.32321 52.2158 4.22788 52.702 4.17068L53.9318 4.06105V3.81796C53.9318 3.43347 53.8237 3.17131 53.6076 3.03149C53.3947 2.89167 53.0992 2.82177 52.7211 2.82177C52.3842 2.82177 52.1237 2.88055 51.9394 2.99813C51.7582 3.1157 51.6279 3.24281 51.5485 3.37945L50.8764 2.96953C51.029 2.69307 51.2609 2.48176 51.5723 2.33558C51.8869 2.18623 52.2762 2.11156 52.7401 2.11156C53.4583 2.11156 53.9731 2.24184 54.2845 2.50241C54.5959 2.76298 54.7516 3.21421 54.7516 3.8561V7.25461H53.9318V6.6302C53.6775 6.85263 53.4217 7.03694 53.1643 7.18311C52.907 7.32928 52.6162 7.40237 52.2921 7.40237C51.8154 7.40237 51.4468 7.25778 51.1862 6.96862C50.9289 6.67627 50.8002 6.3029 50.8002 5.84849ZM51.6486 5.82942C51.6486 6.12813 51.7233 6.34262 51.8726 6.4729C52.022 6.60319 52.246 6.66833 52.5447 6.66833C52.6686 6.66833 52.791 6.64608 52.9117 6.6016C53.0325 6.55393 53.1516 6.49673 53.2692 6.43C53.3868 6.36009 53.4996 6.28224 53.6076 6.19644C53.7188 6.10747 53.8269 6.02167 53.9318 5.93905V4.71883L53.131 4.79509C52.5876 4.84276 52.2047 4.94921 51.9823 5.11445C51.7598 5.27651 51.6486 5.51484 51.6486 5.82942Z" fill="black"/>
<path d="M58.7221 4.7665C58.7221 3.89582 58.9064 3.23645 59.275 2.7884C59.6436 2.33717 60.187 2.11156 60.9051 2.11156C61.7282 2.11156 62.3144 2.41661 62.664 3.02672L61.9919 3.43664C61.868 3.24281 61.7218 3.09187 61.5534 2.98383C61.3881 2.87579 61.1689 2.82177 60.8956 2.82177C60.4158 2.82177 60.0742 2.99654 59.8708 3.34608C59.6706 3.69245 59.5705 4.17227 59.5705 4.78556C59.5705 5.25268 59.6182 5.61652 59.7135 5.87709C59.8088 6.13766 59.9566 6.33785 60.1568 6.47767C60.3602 6.61749 60.6176 6.68739 60.929 6.68739C61.1959 6.68739 61.4136 6.63814 61.582 6.53963C61.7504 6.43795 61.9093 6.28224 62.0586 6.07252L62.7307 6.48243C62.575 6.74936 62.3589 6.97021 62.0825 7.14498C61.806 7.31657 61.4247 7.40237 60.9385 7.40237C60.2045 7.40237 59.6516 7.18152 59.2798 6.73983C58.908 6.29495 58.7221 5.63718 58.7221 4.7665Z" fill="black"/>
<path d="M63.5934 5.84849C63.5934 5.5053 63.6602 5.2209 63.7936 4.99529C63.9303 4.7665 64.1257 4.58696 64.3799 4.45667C64.6373 4.32321 65.0091 4.22788 65.4953 4.17068L66.725 4.06105V3.81796C66.725 3.43347 66.617 3.17131 66.4009 3.03149C66.188 2.89167 65.8925 2.82177 65.5143 2.82177C65.1775 2.82177 64.9169 2.88055 64.7326 2.99813C64.5515 3.1157 64.4212 3.24281 64.3418 3.37945L63.6697 2.96953C63.8222 2.69307 64.0542 2.48176 64.3656 2.33558C64.6802 2.18623 65.0695 2.11156 65.5334 2.11156C66.2516 2.11156 66.7663 2.24184 67.0777 2.50241C67.3892 2.76298 67.5449 3.21421 67.5449 3.8561V7.25461H66.725V6.6302C66.4708 6.85263 66.215 7.03694 65.9576 7.18311C65.7002 7.32928 65.4095 7.40237 65.0854 7.40237C64.6087 7.40237 64.2401 7.25778 63.9795 6.96862C63.7221 6.67627 63.5934 6.3029 63.5934 5.84849ZM64.4419 5.82942C64.4419 6.12813 64.5166 6.34262 64.6659 6.4729C64.8153 6.60319 65.0393 6.66833 65.338 6.66833C65.4619 6.66833 65.5842 6.64608 65.705 6.6016C65.8257 6.55393 65.9449 6.49673 66.0625 6.43C66.1801 6.36009 66.2929 6.28224 66.4009 6.19644C66.5121 6.10747 66.6202 6.02167 66.725 5.93905V4.71883L65.9243 4.79509C65.3809 4.84276 64.998 4.94921 64.7755 5.11445C64.5531 5.27651 64.4419 5.51484 64.4419 5.82942Z" fill="black"/>
<path d="M69.1273 7.25461V2.25455H69.8995V6.20121L72.3495 2.25455H73.1789V7.25461H72.4067V3.38898L69.9948 7.25461H69.1273ZM69.6231 0.38132H70.3762C70.4143 0.616467 70.5033 0.792827 70.6431 0.910401C70.7829 1.02797 70.9577 1.08676 71.1674 1.08676C71.447 1.08676 71.6456 1.02797 71.7632 0.910401C71.884 0.792827 71.9618 0.616467 71.9968 0.38132H72.7451C72.7451 0.610112 72.68 0.819837 72.5497 1.0105C72.4226 1.19798 72.2415 1.34256 72.0063 1.44425C71.7743 1.54276 71.4979 1.59201 71.1769 1.59201C70.8687 1.59201 70.597 1.54117 70.3619 1.43948C70.1299 1.3378 69.9488 1.19162 69.8185 1.00096C69.6882 0.810304 69.6231 0.603756 69.6231 0.38132Z" fill="black"/>
<path d="M74.0654 2.91233V2.25455H78.0693V2.91233H76.4677V7.25461H75.667V2.91233H74.0654Z" fill="black"/>
<path d="M78.6651 5.84849C78.6651 5.5053 78.7318 5.2209 78.8653 4.99529C79.0019 4.7665 79.1974 4.58696 79.4516 4.45667C79.709 4.32321 80.0807 4.22788 80.5669 4.17068L81.7967 4.06105V3.81796C81.7967 3.43347 81.6886 3.17131 81.4726 3.03149C81.2597 2.89167 80.9641 2.82177 80.586 2.82177C80.2492 2.82177 79.9886 2.88055 79.8043 2.99813C79.6232 3.1157 79.4929 3.24281 79.4134 3.37945L78.7414 2.96953C78.8939 2.69307 79.1259 2.48176 79.4373 2.33558C79.7519 2.18623 80.1411 2.11156 80.6051 2.11156C81.3232 2.11156 81.838 2.24184 82.1494 2.50241C82.4608 2.76298 82.6165 3.21421 82.6165 3.8561V7.25461H81.7967V6.6302C81.5425 6.85263 81.2867 7.03694 81.0293 7.18311C80.7719 7.32928 80.4811 7.40237 80.157 7.40237C79.6804 7.40237 79.3118 7.25778 79.0512 6.96862C78.7938 6.67627 78.6651 6.3029 78.6651 5.84849ZM79.5135 5.82942C79.5135 6.12813 79.5882 6.34262 79.7376 6.4729C79.8869 6.60319 80.1109 6.66833 80.4096 6.66833C80.5336 6.66833 80.6559 6.64608 80.7767 6.6016C80.8974 6.55393 81.0166 6.49673 81.1341 6.43C81.2517 6.36009 81.3645 6.28224 81.4726 6.19644C81.5838 6.10747 81.6918 6.02167 81.7967 5.93905V4.71883L80.9959 4.79509C80.4525 4.84276 80.0696 4.94921 79.8472 5.11445C79.6248 5.27651 79.5135 5.51484 79.5135 5.82942Z" fill="black"/>
</g>
</svg>
