<svg width="190" height="47" viewBox="0 0 190 47" fill="none" xmlns="http://www.w3.org/2000/svg">
<path fill-rule="evenodd" clip-rule="evenodd" d="M19.059 0L0 29.5894H7.57158L22.9748 6.35336L19.059 0ZM38.6404 10.3559L34.7234 16.1869L43.1653 29.5894H50.7369L38.6404 10.3559ZM32.287 0.3479L36.0295 6.17886L29.5894 16.1869L37.5089 28.5457L25.847 46.2987L14.0117 28.2845L32.287 0.3479ZM25.7603 34.9857L30.1118 28.2845L25.7603 21.5832L21.4087 28.2845L25.7603 34.9857Z" fill="url(#paint0_linear)"/>
<path fill-rule="evenodd" clip-rule="evenodd" d="M19.059 0L0 29.5894H7.57158L22.9748 6.35336L19.059 0ZM38.6404 10.3559L34.7234 16.1869L43.1653 29.5894H50.7369L38.6404 10.3559ZM32.287 0.3479L36.0295 6.17886L29.5894 16.1869L37.5089 28.5457L25.847 46.2987L14.0117 28.2845L32.287 0.3479ZM25.7603 34.9857L30.1118 28.2845L25.7603 21.5832L21.4087 28.2845L25.7603 34.9857Z" fill="url(#paint1_linear)"/>
<path d="M62.7272 22.3511L61.2355 33.0137H64.3107L65.723 22.9054C64.7026 22.7271 63.7069 22.5453 62.7272 22.3511ZM78.511 24.7272L77.3689 33.0137H80.5235L81.6375 25.0697C80.5853 24.9614 79.5432 24.8473 78.511 24.7272ZM79.3443 13.7822L74.4013 22.9901C75.2999 23.0766 76.2267 23.1667 77.1835 23.2461L79.2737 19.2953L79.3231 19.3235C79.256 19.6307 79.1872 19.9802 79.1201 20.3721L78.7052 23.3838C79.7232 23.4733 80.7689 23.5639 81.8422 23.6557L83.2245 13.7822H79.3443ZM72.004 27.4229L71.5415 28.3462H71.4921L71.259 27.3187L70.327 23.6504C69.2513 23.488 68.1921 23.3208 67.1493 23.149L69.642 33.0137H72.004L76.5127 24.4889C75.5877 24.3742 74.6767 24.2577 73.7729 24.1358L72.004 27.4229ZM67.8219 13.7769H63.9276L62.8049 21.8003C63.7158 21.9009 64.7255 22.0104 65.8271 22.1269L66.0566 20.471C66.0901 20.2839 66.1237 19.9308 66.1572 19.4118H66.212L66.9181 22.2363L70.0622 22.5647L67.8219 13.7769Z" fill="#000046"/>
<path d="M87.9873 20.893C88.6352 20.1321 89.5179 19.7526 90.6353 19.7526C91.937 19.7526 92.5872 20.2139 92.586 21.1366C92.586 22.5806 91.2138 23.5969 88.4693 24.1853C90.0722 24.303 91.7198 24.4207 93.4122 24.5384C94.775 23.5969 95.4576 22.3335 95.46 20.7482C95.4714 20.2752 95.3703 19.8062 95.165 19.3799C94.9597 18.9536 94.656 18.5821 94.279 18.2962C93.494 17.6748 92.3818 17.3635 90.9425 17.3623C88.7888 17.3623 87.0658 18.0243 85.7736 19.3483C84.7356 20.4146 83.9941 21.8945 83.5493 23.7881C84.5626 23.8717 85.5965 23.9547 86.651 24.037C86.9534 22.6307 87.3989 21.5826 87.9873 20.893ZM89.3996 30.7312C88.3204 30.7312 87.5301 30.4793 87.0287 29.9756C86.5274 29.4719 86.2744 28.604 86.2697 27.3718C86.2697 27.0646 86.2697 26.8245 86.2961 26.6533C87.6796 26.4971 89.0489 26.2338 90.3917 25.8659C87.9861 25.6776 85.6129 25.467 83.2721 25.2339V25.2428C83.1683 25.9734 83.1093 26.7098 83.0956 27.4477C83.0956 31.3314 84.8998 33.2733 88.5081 33.2733C90.7972 33.2733 92.6949 32.623 94.2013 31.3226L93.331 29.4001C92.2812 30.2863 90.9702 30.73 89.3978 30.7312H89.3996Z" fill="#000046"/>
<path d="M106.532 12.8537L105.842 17.726C104.9 17.5047 103.936 17.3927 102.968 17.3923C100.521 17.3923 98.5793 18.2897 97.1424 20.0845C96.2103 21.2496 95.5812 22.7796 95.2552 24.6744C96.3391 24.7497 97.4372 24.8226 98.5493 24.8933C98.8424 23.3303 99.3225 22.1535 99.9898 21.3626C100.76 20.4481 101.811 19.9909 103.144 19.9909C103.934 19.9759 104.72 20.0801 105.478 20.2998L104.793 25.264C105.845 25.3205 106.908 25.3752 107.98 25.4281L109.763 12.6807L106.532 12.8537ZM103.25 29.5767C102.909 29.9518 102.493 30.2508 102.028 30.454C101.564 30.6572 101.062 30.7601 100.555 30.7559C99.7886 30.7559 99.2096 30.5353 98.8247 30.0904C98.4399 29.6455 98.2492 28.8759 98.2492 27.7813C98.2501 27.3266 98.276 26.8722 98.3269 26.4203C97.2324 26.3532 96.1438 26.2832 95.061 26.2102C95.0134 26.7981 94.9886 27.4177 94.9886 28.0638C94.9886 29.8945 95.3523 31.2167 96.0796 32.0411C96.8069 32.8655 97.905 33.2768 99.3773 33.2768C101.378 33.2768 102.993 32.5837 104.223 31.1973L104.274 31.222C104.275 31.5765 104.301 31.9305 104.352 32.2812L104.456 33.0244H106.919L107.771 26.9181L104.581 26.7733C104.38 27.9279 103.937 28.8623 103.25 29.5767Z" fill="#000046"/>
<path d="M113.588 12.467C112.15 12.467 111.432 13.049 111.433 14.213C111.433 14.6225 111.572 14.9191 111.855 15.0833C112.137 15.2474 112.577 15.341 113.177 15.341C114.612 15.341 115.329 14.7767 115.331 13.6481C115.331 12.866 114.75 12.467 113.588 12.467ZM111.329 17.726L110.241 25.5341L113.419 25.6788L114.552 17.5459L111.329 17.726ZM109.2 33.0138H112.407L113.23 27.114C112.171 27.0787 111.106 27.0399 110.036 26.9975L109.2 33.0138Z" fill="#000046"/>
<path d="M128.078 17.6501C127.651 17.6501 127.035 17.6071 126.232 17.5212C125.542 17.4419 124.849 17.3989 124.156 17.3923C121.315 17.3923 119.031 18.3839 117.306 20.3669C116.042 21.8204 115.241 23.6116 114.902 25.7406C115.996 25.783 117.097 25.8242 118.203 25.8642C118.485 23.9129 119.091 22.4483 120.019 21.4703C120.976 20.4617 122.224 19.958 123.764 19.9591C124.278 19.9656 124.792 19.9992 125.303 20.0598L124.461 26.0619C125.528 26.0901 126.601 26.1166 127.679 26.1413L128.867 17.6554L128.078 17.6501ZM123.022 29.6367C122.681 29.9974 122.269 30.2837 121.811 30.4778C121.354 30.6719 120.862 30.7696 120.365 30.7648C119.563 30.7648 118.974 30.5511 118.6 30.1239C118.222 29.6985 118.033 28.9782 118.033 27.9685C118.033 27.7478 118.042 27.5148 118.06 27.2623C116.962 27.2341 115.862 27.2023 114.76 27.167C114.737 27.5112 114.727 27.8643 114.727 28.2262C114.727 31.5956 116.24 33.2804 119.266 33.2804C121.266 33.2804 122.882 32.5619 124.113 31.1249L124.166 31.1514C124.166 31.6298 124.166 31.9793 124.191 32.2106L124.24 33.0297H126.729L127.51 27.4583C126.428 27.4441 125.341 27.4271 124.247 27.4071C124.046 28.2467 123.623 29.0168 123.022 29.6367Z" fill="#000046"/>
<path d="M145.904 22.856V22.8048C146.959 22.5644 147.896 21.9615 148.552 21.1012C149.237 20.2186 149.58 19.0022 149.58 17.4435C149.58 15.0002 148.006 13.778 144.858 13.7769H138.262L136.516 26.2472C136.987 26.2472 137.464 26.2472 137.946 26.2472L138.338 23.465H143.828C146.21 23.465 147.479 24.37 147.633 26.1801C148.118 26.1713 148.609 26.1642 149.096 26.1519C148.954 24.3041 147.89 23.2055 145.904 22.856ZM138.49 22.3935L139.517 14.9543H144.621C145.798 14.9543 146.681 15.1774 147.269 15.6234C147.858 16.0694 148.148 16.7785 148.141 17.7506C148.141 19.2735 147.765 20.4286 147.011 21.216C146.258 22.0033 145.205 22.3976 143.853 22.3988L138.49 22.3935ZM147.571 27.5518C147.366 29.0735 146.858 30.1674 146.046 30.8335C145.234 31.4997 144.143 31.8327 142.775 31.8327H137.159L137.766 27.5182H136.336L135.567 33.019H142.598C144.599 33.019 146.107 32.5659 147.123 31.6597C148.138 30.7535 148.775 29.4195 149.034 27.6577C149.043 27.5906 149.05 27.5253 149.056 27.4617L147.585 27.4759C147.582 27.4988 147.576 27.5182 147.573 27.5518H147.571Z" fill="#562766"/>
<path d="M162.066 18.8822C161.278 18.0795 160.012 17.677 158.269 17.6747C156.13 17.6747 154.515 18.2908 153.421 19.523C152.328 20.7552 151.592 22.73 151.215 25.4475C151.181 25.6681 151.149 25.8888 151.125 26.113C151.599 26.1024 152.073 26.0883 152.549 26.0742C152.572 25.8835 152.597 25.6911 152.627 25.4969C152.952 23.0713 153.533 21.3495 154.371 20.3315C155.209 19.3135 156.44 18.8039 158.064 18.8027C159.38 18.8027 160.337 19.1193 160.936 19.7525C161.535 20.3857 161.835 21.4449 161.835 22.9301C161.822 23.7716 161.753 24.6114 161.63 25.4439C161.616 25.5357 161.605 25.6205 161.588 25.714C162.064 25.6928 162.539 25.6664 163.012 25.6399C163.021 25.5834 163.028 25.5251 163.037 25.4633C163.161 24.5794 163.23 23.6885 163.242 22.7959C163.244 20.9906 162.852 19.686 162.066 18.8822ZM159.847 30.6305C159 31.6544 157.772 32.1669 156.165 32.1681C154.849 32.1681 153.896 31.8603 153.305 31.2448C152.714 30.6293 152.42 29.5772 152.422 28.0884C152.422 27.8648 152.427 27.6388 152.438 27.4105C151.972 27.4193 151.501 27.4246 151.026 27.4317C151.015 27.6735 151.01 27.9207 151.01 28.1661C151.01 29.962 151.403 31.2619 152.191 32.0657C152.978 32.8695 154.243 33.2714 155.986 33.2714C158.105 33.2714 159.712 32.6559 160.807 31.4249C161.655 30.4704 162.292 29.0652 162.719 27.2093L161.307 27.2428C160.953 28.7492 160.466 29.8785 159.847 30.6305Z" fill="#562766"/>
<path d="M170.734 17.6747C169.042 17.6747 167.688 18.0507 166.674 18.8027C166.188 19.1523 165.796 19.616 165.532 20.1529C165.268 20.6899 165.141 21.2835 165.161 21.8815C165.153 22.4681 165.339 23.0409 165.69 23.5109C166.036 23.9755 166.489 24.3498 167.011 24.6019C167.473 24.8225 167.971 25.0573 168.503 25.2992C169.398 25.2339 170.287 25.1668 171.179 25.0944C171.179 25.0944 171.179 25.0944 171.166 25.0944C170.467 24.786 169.771 24.4948 169.076 24.2206C168.434 23.9767 167.837 23.6257 167.311 23.1825C167.084 23.0037 166.9 22.7758 166.774 22.516C166.647 22.2561 166.581 21.971 166.58 21.682C166.58 20.8441 166.948 20.1556 167.683 19.6166C168.419 19.0775 169.361 18.808 170.508 18.808C171.734 18.7897 172.947 19.0722 174.039 19.6307L174.577 18.6544C173.519 18.0013 172.238 17.6747 170.734 17.6747ZM171.59 26.9515C171.663 27.0257 171.733 27.1016 171.8 27.1793C172.146 27.5825 172.334 28.0973 172.33 28.6286C172.337 29.0993 172.241 29.5659 172.048 29.9956C171.856 30.4252 171.572 30.8076 171.216 31.116C170.48 31.7832 169.455 32.1163 168.139 32.1151C166.444 32.1151 165.101 31.6202 164.11 30.6305L163.546 31.6279C164.118 32.1439 164.79 32.5369 165.521 32.7824C166.335 33.0745 167.194 33.2221 168.059 33.2185C169.825 33.2185 171.202 32.7783 172.19 31.898C173.179 31.0177 173.674 29.8408 173.677 28.3673C173.687 27.8528 173.565 27.3441 173.324 26.8897L171.59 26.9515Z" fill="#562766"/>
<path d="M181.559 17.6747C179.865 17.6747 178.512 18.0507 177.499 18.8027C176.485 19.5548 175.981 20.581 175.986 21.8815C175.978 22.4681 176.164 23.0409 176.515 23.5109C176.817 23.9193 177.204 24.2577 177.649 24.503C178.434 24.4253 179.213 24.3388 179.991 24.2523L179.901 24.2153C179.259 23.9714 178.662 23.6204 178.136 23.1772C177.909 22.9985 177.725 22.7707 177.598 22.5108C177.471 22.251 177.405 21.9659 177.403 21.6767C177.403 20.8388 177.772 20.1503 178.509 19.6113C179.245 19.0722 180.187 18.8027 181.333 18.8027C182.562 18.783 183.778 19.0655 184.873 19.6254L185.402 18.6492C184.345 17.9995 183.064 17.6747 181.559 17.6747ZM181.937 26.5526C182.193 26.7302 182.424 26.9409 182.625 27.1793C182.971 27.5825 183.159 28.0973 183.155 28.6286C183.163 29.0987 183.068 29.5649 182.878 29.9946C182.687 30.4242 182.404 30.807 182.05 31.116C181.315 31.7832 180.289 32.1163 178.971 32.1151C177.28 32.1151 175.938 31.6202 174.946 30.6305L174.381 31.6279C174.954 32.1439 175.626 32.5369 176.357 32.7824C177.171 33.0745 178.03 33.2221 178.895 33.2185C180.66 33.2185 182.037 32.7783 183.026 31.898C184.015 31.0177 184.51 29.8408 184.512 28.3673C184.53 27.6736 184.298 26.9966 183.859 26.459L181.937 26.5526Z" fill="#562766"/>
<path d="M187.316 24.3159C187.277 24.1585 187.301 23.992 187.382 23.8519C187.464 23.7118 187.597 23.6091 187.754 23.5656C187.91 23.5235 188.076 23.5451 188.216 23.6257C188.357 23.7064 188.459 23.8394 188.501 23.9955C188.543 24.1516 188.522 24.3181 188.441 24.4583C188.36 24.5985 188.227 24.701 188.071 24.7431C187.915 24.7846 187.748 24.7631 187.607 24.6833C187.465 24.6035 187.361 24.4716 187.316 24.3159ZM186.269 26.106C186.257 26.1251 186.249 26.1467 186.246 26.1693C186.242 26.1919 186.244 26.2149 186.251 26.2366C186.257 26.259 186.268 26.2798 186.283 26.2975C186.298 26.3152 186.317 26.3294 186.338 26.339C186.601 26.4746 186.908 26.5001 187.19 26.4101C187.472 26.3201 187.707 26.1219 187.844 25.8588C187.93 25.7081 187.982 25.5397 187.994 25.3663C188.537 25.2002 189.028 24.8961 189.418 24.4836C189.624 24.2473 189.811 23.9959 189.98 23.7316C190.001 23.6891 190.006 23.6403 189.993 23.5944C189.981 23.5485 189.952 23.5088 189.913 23.4827C189.152 23.0183 188.241 22.8665 187.37 23.059C187.272 22.9148 187.143 22.7942 186.993 22.7059C186.743 22.5476 186.441 22.4945 186.152 22.5584C185.863 22.6222 185.611 22.7978 185.452 23.0466C185.438 23.0653 185.428 23.087 185.424 23.1099C185.419 23.1329 185.42 23.1566 185.427 23.179C185.432 23.2014 185.442 23.2224 185.456 23.2406C185.47 23.2589 185.488 23.274 185.508 23.285L186.064 23.638C185.838 23.7999 185.632 23.9877 185.45 24.1976C185.273 24.3918 185.353 24.7502 185.381 24.8543C185.399 24.9509 185.438 25.0424 185.495 25.1221C185.552 25.2018 185.627 25.2677 185.713 25.3151C185.989 25.4092 186.275 25.4685 186.565 25.4916L186.269 26.106Z" fill="url(#paint2_linear)"/>
<defs>
<linearGradient id="paint0_linear" x1="8509.67" y1="18637.1" x2="7051.54" y2="6170.21" gradientUnits="userSpaceOnUse">
<stop stop-color="#0C988D"/>
<stop offset="0.18" stop-color="#23A085"/>
<stop offset="0.54" stop-color="#4AAD78"/>
<stop offset="0.82" stop-color="#62B56F"/>
<stop offset="1" stop-color="#6BB86C"/>
</linearGradient>
<linearGradient id="paint1_linear" x1="25.3685" y1="0" x2="25.3685" y2="46.2987" gradientUnits="userSpaceOnUse">
<stop stop-color="#6BB86C"/>
<stop offset="1" stop-color="#0C988D"/>
</linearGradient>
<linearGradient id="paint2_linear" x1="3227.78" y1="2544.56" x2="3293.61" y2="2437.6" gradientUnits="userSpaceOnUse">
<stop stop-color="#0C988D"/>
<stop offset="0.18" stop-color="#23A085"/>
<stop offset="0.54" stop-color="#4AAD78"/>
<stop offset="0.82" stop-color="#62B56F"/>
<stop offset="1" stop-color="#6BB86C"/>
</linearGradient>
</defs>
</svg>
