<svg width="76" height="80" viewBox="0 0 76 80" fill="none" xmlns="http://www.w3.org/2000/svg">
<path fill-rule="evenodd" clip-rule="evenodd" d="M38 0.585815L39.9203 2.50613C45.7339 8.31976 49 16.2047 49 24.4264V25.638L54.0828 31.7373L51.668 42.6037L44.765 38.2495L44.7111 38.325C43.9602 39.3762 42.748 40 41.4561 40H34.5439C33.252 40 32.0398 39.3762 31.2889 38.325L31.235 38.2495L24.332 42.6037L21.9172 31.7373L27 25.638V24.4264C27 16.2047 30.2661 8.31976 36.0797 2.50613L38 0.585815ZM27.168 28.5604L24.0828 32.2627L25.668 39.3963L30.0946 36.6042C28.5437 34.1668 27.544 31.416 27.168 28.5604ZM45.9054 36.6042L50.332 39.3963L51.9172 32.2627L48.832 28.5604C48.456 31.416 47.4563 34.1668 45.9054 36.6042ZM47 26V24.4264C47 16.7352 43.9447 9.3589 38.5061 3.92034L38 3.41424L37.4939 3.92034C32.0553 9.3589 29 16.7352 29 24.4264V26C29 29.6927 30.166 33.312 32.3137 36.3188L32.9164 37.1625C33.2918 37.6881 33.898 38 34.5439 38H41.4561C42.102 38 42.7082 37.6881 43.0836 37.1625L43.6863 36.3188C45.834 33.312 47 29.6927 47 26ZM38 14C36.3431 14 35 15.3432 35 17C35 18.6569 36.3431 20 38 20C39.6569 20 41 18.6569 41 17C41 15.3432 39.6569 14 38 14ZM33 17C33 14.2386 35.2386 12 38 12C40.7614 12 43 14.2386 43 17C43 19.7615 40.7614 22 38 22C35.2386 22 33 19.7615 33 17ZM33 59V42H35V59C35 70.598 25.598 80 14 80H0V78H14C24.4934 78 33 69.4934 33 59ZM37 80V42H39V80H37ZM41 59V42H43V59C43 69.4934 51.5066 78 62 78H76V80H62C50.402 80 41 70.598 41 59Z" fill="url(#paint0_linear)"/>
<defs>
<linearGradient id="paint0_linear" x1="38" y1="0.585815" x2="38" y2="80" gradientUnits="userSpaceOnUse">
<stop stop-color="#6BB86C"/>
<stop offset="1" stop-color="#0C988D"/>
</linearGradient>
</defs>
</svg>
